<svg xmlns="http://www.w3.org/2000/svg" viewBox="0 0 512 512" width="512" height="512">
  <defs>
    <linearGradient id="solarGrad" x1="0%" y1="0%" x2="100%" y2="100%">
      <stop offset="0%" stop-color="#4f46e5" />
      <stop offset="100%" stop-color="#06b6d4" />
    </linearGradient>
    <linearGradient id="sunGrad" x1="0%" y1="0%" x2="100%" y2="100%">
      <stop offset="0%" stop-color="#fbbf24" />
      <stop offset="100%" stop-color="#f59e0b" />
    </linearGradient>
  </defs>
  <rect width="512" height="512" rx="100" fill="#0f172a" />
  <!-- Sun radiating behind panel -->
  <circle cx="256" cy="180" r="70" fill="url(#sunGrad)" opacity="0.9" />
  <g stroke="#f59e0b" stroke-width="8" stroke-linecap="round" opacity="0.6">
    <line x1="256" y1="70" x2="256" y2="95" />
    <line x1="256" y1="265" x2="256" y2="290" />
    <line x1="146" y1="180" x2="171" y2="180" />
    <line x1="341" y1="180" x2="366" y2="180" />
    <line x1="178" y1="102" x2="196" y2="120" />
    <line x1="316" y1="240" x2="334" y2="258" />
    <line x1="334" y1="102" x2="316" y2="120" />
    <line x1="196" y1="240" x2="178" y2="258" />
  </g>
  <!-- Solar Panel Grid -->
  <path d="M 120 280 L 392 280 L 432 420 L 80 420 Z" fill="url(#solarGrad)" stroke="#38bdf8" stroke-width="6" />
  <!-- Panel Grid Lines -->
  <line x1="210" y1="280" x2="195" y2="420" stroke="#ffffff" stroke-width="4" opacity="0.8" />
  <line x1="302" y1="280" x2="317" y2="420" stroke="#ffffff" stroke-width="4" opacity="0.8" />
  <line x1="107" y1="326" x2="405" y2="326" stroke="#ffffff" stroke-width="4" opacity="0.8" />
  <line x1="93" y1="373" x2="419" y2="373" stroke="#ffffff" stroke-width="4" opacity="0.8" />
</svg>
